<?xml version="1.0" encoding="UTF-8" standalone="no"?>
<svg
   svg:contrastcolor="f6ffff"
   svg:template="Contrast"
   svg:presentation="2.5"
   svg:layouttype="undefined"
   svg:specialfontid="undefined"
   svg:id1="615"
   svg:id2="428"
   svg:companyname="LEONA PARK"
   svg:companytagline="Leonástico!"
   version="1.1"
   viewBox="0 0 420 135.21201"
   id="svg24"
   width="420"
   height="135.21201"
   xmlns="http://www.w3.org/2000/svg"
   xmlns:svg="http://www.w3.org/2000/svg">
  <defs
     id="defs24" />
  <g
     fill="#a97038"
     fill-rule="none"
     stroke="none"
     stroke-width="1"
     stroke-linecap="butt"
     stroke-linejoin="miter"
     stroke-miterlimit="10"
     stroke-dasharray="none"
     stroke-dashoffset="0"
     font-family="none"
     font-weight="none"
     font-size="none"
     text-anchor="none"
     style="mix-blend-mode:normal"
     id="g24"
     transform="translate(-64.999997,-167.39397)">
    <g
       data-paper-data="{&quot;isGlobalGroup&quot;:true,&quot;bounds&quot;:{&quot;x&quot;:64.99999999999997,&quot;y&quot;:167.3939668633203,&quot;width&quot;:420,&quot;height&quot;:135.21206627335945}}"
       id="g23">
      <g
         data-paper-data="{&quot;isSecondaryText&quot;:true}"
         fill-rule="nonzero"
         id="g11">
        <path
           d="m 198.38441,300.87376 h -0.23893 c -1.06193,0 -1.65263,-0.58406 -1.7721,-1.75218 -0.11947,-0.99556 -0.1792,-1.99776 -0.1792,-3.00659 0,-1.60617 0.25221,-4.04197 0.75663,-7.3074 0.0796,-0.59734 0.15929,-1.00883 0.23893,-1.23449 0.21239,-0.54424 0.56415,-0.81636 1.05529,-0.81636 0.0929,0 0.18584,0.0133 0.27876,0.0398 0.57079,0.18584 0.85618,0.57079 0.85618,1.15485 -0.0133,0.21239 -0.0465,0.42477 -0.0996,0.63716 -0.0398,0.15929 -0.073,0.32522 -0.0996,0.49778 -0.46459,2.69465 -0.69689,5.04417 -0.69689,7.04856 0,1.1814 0.0465,1.99112 0.13938,2.42916 l 2.17032,-0.21902 c 0.66371,0 1.02874,0.36504 1.09512,1.09512 0,0.43805 -0.23893,0.77654 -0.7168,1.01547 -0.0929,0.0531 -0.1792,0.0863 -0.25885,0.0996 -0.84954,0.15929 -1.69245,0.26548 -2.52872,0.31858 z"
           data-paper-data="{&quot;glyphName&quot;:&quot;l&quot;,&quot;glyphIndex&quot;:0,&quot;firstGlyphOfWord&quot;:true,&quot;word&quot;:1}"
           fill="#a97038"
           id="path1" />
        <path
           d="m 212.00158,302.02861 c -0.87609,0 -1.50661,-0.47123 -1.89156,-1.41369 -0.62388,-1.83183 -0.93583,-4.09507 -0.93583,-6.78971 0,-1.57962 0.13938,-3.14597 0.41813,-4.69904 0.10619,-0.53096 0.26548,-1.04202 0.47787,-1.53316 0.47787,-1.04866 1.27432,-1.57298 2.38934,-1.57298 1.03538,0.0133 2.07076,0.0597 3.10614,0.13938 0.57079,0.0398 0.94246,0.0863 1.11503,0.13938 0.62388,0.22566 0.93583,0.5907 0.93583,1.09512 0,0.4115 -0.16593,0.71017 -0.49778,0.896 -0.23893,0.14602 -0.53096,0.21902 -0.87609,0.21902 -1.44688,-0.18584 -2.50217,-0.27876 -3.16588,-0.27876 -0.42477,0 -0.7168,0.0796 -0.87609,0.23893 -0.15929,0.15929 -0.27212,0.56415 -0.33849,1.21458 1.51325,-0.0531 2.62828,-0.10619 3.34508,-0.15929 h 0.21902 c 0.79645,0 1.20131,0.33849 1.21458,1.01547 0,0.31858 -0.10951,0.59734 -0.32853,0.83627 -0.21902,0.23893 -0.52765,0.37168 -0.92587,0.39822 -1.16812,0.0929 -2.45571,0.15929 -3.86277,0.19911 -0.0664,0.70353 -0.0996,1.40042 -0.0996,2.09067 0,1.8982 0.25221,3.76985 0.75663,5.61495 1.08848,-0.3584 2.00439,-0.80308 2.74774,-1.33405 0.29203,-0.21239 0.5907,-0.31858 0.896,-0.31858 0.59734,0 0.90264,0.37831 0.91591,1.13494 0,0.46459 -0.21902,0.83627 -0.65707,1.11503 -1.02211,0.74335 -2.13713,1.29423 -3.34508,1.65263 -0.26548,0.0664 -0.51105,0.0996 -0.73671,0.0996 z"
           data-paper-data="{&quot;glyphName&quot;:&quot;e&quot;,&quot;glyphIndex&quot;:1,&quot;word&quot;:1}"
           fill="#a97038"
           id="path2" />
        <path
           d="m 229.12489,301.88923 c -0.45132,0 -0.92255,-0.0531 -1.41369,-0.15929 -2.09731,-0.62388 -3.40481,-2.01103 -3.9225,-4.16144 -0.14602,-0.63716 -0.21902,-1.26768 -0.21902,-1.89156 0,-0.61061 0.0664,-1.22122 0.19911,-1.83183 0.37168,-2.00439 1.22122,-3.76321 2.54863,-5.27646 0.79645,-0.92919 1.56635,-1.48006 2.3097,-1.65263 0.3053,-0.0664 0.5907,-0.0996 0.85618,-0.0996 0.38495,0 0.73671,0.073 1.05529,0.21902 0.38495,0.25221 0.57742,0.56415 0.57742,0.93583 0,0.3584 -0.13274,0.65707 -0.39822,0.896 -0.18584,0.14602 -0.39159,0.21902 -0.61725,0.21902 -0.80972,0 -1.44024,0.27212 -1.89156,0.81636 -1.1814,1.23449 -1.91811,2.69465 -2.21014,4.38046 -0.10619,0.46459 -0.15929,0.92919 -0.15929,1.39378 0,0.91591 0.19911,1.719 0.59734,2.40925 0.50442,0.80972 1.01215,1.271 1.52321,1.38383 0.51105,0.11283 0.86614,0.16925 1.06525,0.16925 0.61061,0 1.22122,-0.19247 1.83183,-0.57742 0.70353,-0.50442 1.19799,-1.14821 1.48338,-1.93138 0.28539,-0.78317 0.42809,-1.43361 0.42809,-1.9513 0,-0.50442 -0.0996,-1.00883 -0.29867,-1.51325 -0.29203,-0.86282 -0.88273,-1.36723 -1.7721,-1.51325 -0.13274,-0.0266 -0.27212,-0.073 -0.41813,-0.13938 -0.47787,-0.23893 -0.74003,-0.47455 -0.78649,-0.70685 -0.0465,-0.2323 -0.0697,-0.38163 -0.0697,-0.448 0,-0.33185 0.15265,-0.65707 0.45796,-0.97565 0.22566,-0.21239 0.48451,-0.37831 0.77654,-0.49778 1.15485,-0.49114 2.31633,-0.73671 3.48446,-0.73671 0.84954,0 1.69909,0.1261 2.54863,0.37831 0.22566,0.0796 0.42477,0.20575 0.59734,0.37831 0.21239,0.22566 0.31858,0.46459 0.31858,0.7168 0,0.15929 -0.0398,0.31858 -0.11947,0.47787 -0.17256,0.4115 -0.47787,0.61725 -0.91591,0.61725 -0.38495,-0.0266 -0.76326,-0.073 -1.13494,-0.13938 -0.95574,-0.15929 -1.63935,-0.23893 -2.05085,-0.23893 l 0.25885,0.39822 c 0.94246,1.19467 1.41369,2.4889 1.41369,3.88268 0,0.53096 -0.073,1.08184 -0.21902,1.65263 -0.26548,1.22122 -0.82963,2.29642 -1.69245,3.22561 -1.14157,1.26104 -2.48226,1.89156 -4.02206,1.89156 z"
           data-paper-data="{&quot;glyphName&quot;:&quot;o&quot;,&quot;glyphIndex&quot;:2,&quot;word&quot;:1}"
           fill="#a97038"
           id="path3" />
        <path
           d="m 251.45055,301.35163 c -0.31858,-0.0265 -0.58074,-0.15265 -0.78649,-0.37831 -0.20575,-0.22566 -0.30862,-0.49778 -0.30862,-0.81636 l 0.0398,-1.67254 c 0.0531,-1.02211 0.0796,-2.03758 0.0796,-3.04641 0,-2.33625 -0.18584,-4.22781 -0.55751,-5.67469 -0.0796,-0.3053 -0.19247,-0.45796 -0.33849,-0.45796 -0.0929,0 -0.21239,0.0796 -0.3584,0.23893 -0.95574,1.08848 -1.65927,2.3097 -2.11059,3.66366 -0.63716,1.61944 -1.02211,3.30526 -1.15485,5.05744 l -0.0996,0.7168 c -0.14602,0.62388 -0.51769,0.95574 -1.11503,0.99556 -0.26548,0 -0.5011,-0.0796 -0.70685,-0.23893 -0.20575,-0.15929 -0.34181,-0.38495 -0.40818,-0.67698 -0.0929,-0.46459 -0.27876,-1.91811 -0.55751,-4.36055 -0.34513,-2.615 -0.57742,-4.73222 -0.69689,-6.35167 0,-0.17256 0.0133,-0.31194 0.0398,-0.41813 0.17256,-0.53096 0.52433,-0.80308 1.05529,-0.81636 0.49114,0 0.82963,0.21902 1.01547,0.65707 0.13274,0.43805 0.31858,1.87165 0.55751,4.30082 l 0.39822,-0.83627 c 0.50442,-1.15485 1.1814,-2.2035 2.03094,-3.14597 0.7168,-0.86282 1.46679,-1.29423 2.24996,-1.29423 1.93802,0 2.92694,2.28315 2.96677,6.84945 l 0.0199,2.68801 c 0,2.15041 -0.0398,3.49773 -0.11947,4.04197 -0.13274,0.65043 -0.51105,0.97565 -1.13494,0.97565 z"
           data-paper-data="{&quot;glyphName&quot;:&quot;n&quot;,&quot;glyphIndex&quot;:3,&quot;word&quot;:1}"
           fill="#a97038"
           id="path4" />
        <path
           d="m 268.13548,302.60603 c -0.37168,-0.0133 -0.65707,-0.13606 -0.85618,-0.36836 -0.19911,-0.2323 -0.3053,-0.52765 -0.31858,-0.88605 l -0.0199,-1.69245 c -0.57079,0.18584 -1.14157,0.3584 -1.71236,0.51769 -0.34513,0.0929 -0.7168,0.13938 -1.11503,0.13938 -0.33185,0 -0.67034,-0.0398 -1.01547,-0.11947 -1.34069,-0.33185 -2.01103,-1.12166 -2.01103,-2.36943 0,-0.46459 0.13938,-0.93583 0.41813,-1.41369 0.86282,-1.28759 2.31633,-2.00439 4.36055,-2.15041 l 1.37387,-0.0597 c 0.0398,-0.45132 0.0597,-0.896 0.0597,-1.33405 -0.0796,-2.90703 -0.51105,-4.36055 -1.29423,-4.36055 -0.29203,0 -0.63052,0.17256 -1.01547,0.51769 -1.16812,1.00883 -2.01767,2.24996 -2.54863,3.72339 -0.22566,0.7699 -0.63052,1.15485 -1.21458,1.15485 -0.0796,0 -0.15265,-0.007 -0.21902,-0.0199 -0.55751,-0.17256 -0.83627,-0.55751 -0.83627,-1.15485 0,-0.21239 0.0332,-0.41813 0.0996,-0.61725 0.63716,-1.8982 1.71236,-3.49109 3.22561,-4.77868 0.90264,-0.73008 1.7721,-1.10175 2.60837,-1.11503 0.86282,0 1.60617,0.39159 2.23005,1.17476 0.823,1.1814 1.23449,2.96013 1.23449,5.3362 0,0.47787 -0.0796,2.57518 -0.23893,6.29193 -0.0265,1.02211 -0.0664,1.85174 -0.11947,2.4889 -0.10619,0.70353 -0.46459,1.06857 -1.0752,1.09512 z m -4.14152,-4.55966 0.23893,-0.0199 c 1.02211,-0.11947 1.9513,-0.35176 2.78757,-0.69689 l 0.0199,-0.73671 c -0.34513,-0.0531 -0.61061,-0.0796 -0.79645,-0.0796 -0.73008,0 -1.42697,0.15929 -2.09067,0.47787 -0.43805,0.23893 -0.65707,0.48451 -0.65707,0.73671 0,0.21239 0.16593,0.31858 0.49778,0.31858 z m -0.43805,-12.78298 c -0.4115,0 -0.7168,-0.2323 -0.91591,-0.69689 -0.0398,-0.13274 -0.0597,-0.26548 -0.0597,-0.39822 0,-0.42477 0.24557,-0.7699 0.73671,-1.03538 0.26548,-0.11947 1.65927,-0.61061 4.18135,-1.47343 0.26548,-0.10619 0.5376,-0.15929 0.81636,-0.15929 0.54424,0 0.86282,0.3584 0.95574,1.0752 0,0.54424 -0.31858,0.93583 -0.95574,1.17476 -2.89376,1.00883 -4.48002,1.51325 -4.75877,1.51325 z"
           data-paper-data="{&quot;glyphName&quot;:&quot;á&quot;,&quot;glyphIndex&quot;:4,&quot;word&quot;:1}"
           fill="#a97038"
           id="path5" />
        <path
           d="m 281.28174,301.55074 c -0.65043,0 -1.29423,-0.1261 -1.93138,-0.37831 -1.67254,-0.61061 -2.54863,-1.83183 -2.62828,-3.66366 0,-1.08848 0.51105,-1.93802 1.53316,-2.54863 0.47787,-0.26548 0.96237,-0.39822 1.45352,-0.39822 0.91591,0 1.81855,0.46459 2.70792,1.39378 0.25221,0.27876 0.37831,0.55751 0.37831,0.83627 0,0.22566 -0.0796,0.45796 -0.23893,0.69689 -0.23893,0.27876 -0.51769,0.41813 -0.83627,0.41813 -0.22566,0 -0.47123,-0.0796 -0.73671,-0.23893 l -0.73671,-0.61725 c -0.21239,-0.14602 -0.39159,-0.21902 -0.5376,-0.21902 -0.11947,0 -0.23893,0.0332 -0.3584,0.0996 -0.23893,0.18584 -0.3584,0.4115 -0.3584,0.67698 0,0.11947 0.0133,0.22566 0.0398,0.31858 0.17256,0.49114 0.47787,0.83959 0.91591,1.04534 0.43805,0.20575 0.86946,0.30862 1.29423,0.30862 0.38495,0 0.76326,-0.073 1.13494,-0.21902 0.70353,-0.29203 1.05529,-0.82963 1.05529,-1.61281 0,-0.0664 -0.0133,-0.34181 -0.0398,-0.82631 -0.0265,-0.48451 -0.39822,-1.07189 -1.11503,-1.76214 -0.49114,-0.46459 -0.99556,-0.91591 -1.51325,-1.35396 -1.03538,-0.86282 -1.79201,-1.57298 -2.26988,-2.1305 -0.51769,-0.69025 -0.77654,-1.41369 -0.77654,-2.17032 0,-1.02211 0.40486,-1.90484 1.21458,-2.64819 0.70353,-0.65043 1.68581,-1.0022 2.94686,-1.05529 0.98229,0 1.89156,0.4115 2.72783,1.23449 0.47787,0.53096 0.7168,1.14821 0.7168,1.85174 0,0.63716 -0.21902,1.15485 -0.65707,1.55307 -0.23893,0.19911 -0.48451,0.29867 -0.73671,0.29867 -0.21239,0 -0.41813,-0.0597 -0.61725,-0.1792 -0.33185,-0.21239 -0.49778,-0.51105 -0.49778,-0.896 0,-0.10619 0.0166,-0.22898 0.0498,-0.36836 0.0332,-0.13938 0.0498,-0.27544 0.0498,-0.40818 0,-0.50442 -0.39159,-0.75663 -1.17476,-0.75663 -0.22566,0 -0.45796,0.0332 -0.69689,0.0996 -0.69025,0.18584 -1.03538,0.61061 -1.03538,1.27432 0,0.26548 0.1261,0.55088 0.37831,0.85618 0.25221,0.3053 0.86282,0.86946 1.83183,1.69245 2.37607,1.77873 3.5641,3.70348 3.5641,5.77424 -0.11947,1.93802 -1.11503,3.21234 -2.98668,3.82295 -0.49114,0.13274 -0.99556,0.19911 -1.51325,0.19911 z"
           data-paper-data="{&quot;glyphName&quot;:&quot;s&quot;,&quot;glyphIndex&quot;:5,&quot;word&quot;:1}"
           fill="#a97038"
           id="path6" />
        <path
           d="m 296.75164,301.53083 c -0.88937,-0.0796 -1.59289,-0.47123 -2.11059,-1.17476 -0.74335,-0.96901 -1.16812,-2.05085 -1.27432,-3.24552 -0.13274,-1.59289 -0.19911,-3.35835 -0.19911,-5.29638 -0.33185,-0.0796 -0.6272,-0.19911 -0.88605,-0.3584 -0.25885,-0.15929 -0.38827,-0.43805 -0.38827,-0.83627 0,-0.4115 0.1261,-0.70353 0.37831,-0.87609 0.25221,-0.17256 0.5907,-0.32522 1.01547,-0.45796 0.0664,-1.30086 0.14602,-2.19687 0.23893,-2.68801 0.13274,-0.53096 0.47787,-0.80972 1.03538,-0.83627 0.75663,0 1.13494,0.44468 1.13494,1.33405 0,0.19911 -0.0265,0.58406 -0.0796,1.15485 l -0.0398,0.7168 h 1.85174 c 0.53096,0 0.91591,0.14602 1.15485,0.43805 0.15929,0.22566 0.23893,0.47123 0.23893,0.73671 -0.0133,0.67698 -0.37831,1.04202 -1.09512,1.09512 l -2.23005,0.13938 c -0.0531,1.19467 -0.0796,1.97784 -0.0796,2.34952 0,1.88493 0.21902,3.43136 0.65707,4.63931 0.13274,0.43805 0.39159,0.65707 0.77654,0.65707 0.51769,0 0.77654,-0.74999 0.77654,-2.24996 l -0.0597,-0.93583 c 0,-0.19911 0.0531,-0.37831 0.15929,-0.5376 0.22566,-0.34513 0.53096,-0.51769 0.91591,-0.51769 0.43805,0 0.7699,0.19247 0.99556,0.57742 0.17256,0.26548 0.25885,0.5376 0.25885,0.81636 0,1.11503 -0.13938,2.22342 -0.41813,3.32517 -0.51769,1.35396 -1.42697,2.03094 -2.72783,2.03094 z"
           data-paper-data="{&quot;glyphName&quot;:&quot;t&quot;,&quot;glyphIndex&quot;:6,&quot;word&quot;:1}"
           fill="#a97038"
           id="path7" />
        <path
           d="m 308.90608,301.61047 c -0.73008,0 -1.18803,-0.58406 -1.37387,-1.75218 -0.34513,-2.2035 -0.52433,-4.49993 -0.5376,-6.88927 0,-1.65927 0.16593,-2.63491 0.49778,-2.92694 0.21239,-0.17256 0.45796,-0.25885 0.73671,-0.25885 0.7168,0.0133 1.08184,0.43141 1.09512,1.2544 0.0265,0.65043 0.0398,1.31414 0.0398,1.99112 v 0.47787 c 0,2.40262 0.19247,4.61939 0.57742,6.65034 0.0265,0.14602 0.0398,0.27876 0.0398,0.39822 0,0.50442 -0.24557,0.84291 -0.73671,1.01547 -0.11947,0.0265 -0.2323,0.0398 -0.33849,0.0398 z m -0.39822,-12.78298 c -0.46459,-0.0133 -0.82963,-0.24557 -1.09512,-0.69689 -0.10619,-0.21239 -0.15929,-0.42477 -0.15929,-0.63716 0,-0.54424 0.21902,-0.96901 0.65707,-1.27432 0.19911,-0.13274 0.40486,-0.19911 0.61725,-0.19911 0.17256,0 0.34513,0.0465 0.51769,0.13938 0.43805,0.22566 0.65707,0.64379 0.65707,1.2544 -0.0133,0.37168 -0.0863,0.65043 -0.21902,0.83627 -0.26548,0.38495 -0.5907,0.57742 -0.97565,0.57742 z"
           data-paper-data="{&quot;glyphName&quot;:&quot;i&quot;,&quot;glyphIndex&quot;:7,&quot;word&quot;:1}"
           fill="#a97038"
           id="path8" />
        <path
           d="m 321.53218,300.97332 c -0.26548,0 -0.5376,-0.0332 -0.81636,-0.0996 -1.26104,-0.27876 -2.23669,-0.96901 -2.92694,-2.07076 -0.73008,-1.24777 -1.09512,-2.65482 -1.09512,-4.22117 0.11947,-3.58401 1.36723,-6.01981 3.7433,-7.3074 0.43805,-0.25221 0.88937,-0.37831 1.35396,-0.37831 0.4115,0 0.82963,0.10619 1.2544,0.31858 1.35396,0.67698 2.03758,1.83183 2.05085,3.46455 0,0.74335 -0.22566,1.44688 -0.67698,2.11059 -0.34513,0.45132 -0.73008,0.67698 -1.15485,0.67698 -0.27876,0 -0.52101,-0.11615 -0.72676,-0.34845 -0.20575,-0.2323 -0.30862,-0.47455 -0.30862,-0.72676 0,-0.19911 0.13938,-0.54424 0.41813,-1.03538 0.11947,-0.29203 0.1792,-0.56415 0.1792,-0.81636 0,-0.42477 -0.16593,-0.78981 -0.49778,-1.09512 -0.17256,-0.17256 -0.35176,-0.25885 -0.5376,-0.25885 -0.15929,0 -0.31858,0.0664 -0.47787,0.19911 -0.42477,0.33185 -0.78981,0.7168 -1.09512,1.15485 -0.80972,1.28759 -1.21458,2.65482 -1.21458,4.1017 0,0.47787 0.0398,0.95574 0.11947,1.43361 0.37168,1.46015 1.03538,2.32297 1.99112,2.58845 0.11947,0.0398 0.2323,0.0597 0.33849,0.0597 0.43805,0 0.78317,-0.47787 1.03538,-1.43361 0.21239,-0.75663 0.5907,-1.13494 1.13494,-1.13494 l 0.15929,0.0199 c 0.63716,0.14602 0.95574,0.55088 0.95574,1.21458 -0.0796,1.03538 -0.46459,1.93138 -1.15485,2.68801 -0.59734,0.59734 -1.28095,0.896 -2.05085,0.896 z"
           data-paper-data="{&quot;glyphName&quot;:&quot;c&quot;,&quot;glyphIndex&quot;:8,&quot;word&quot;:1}"
           fill="#a97038"
           id="path9" />
        <path
           d="m 337.99195,301.88923 c -0.45132,0 -0.92255,-0.0531 -1.41369,-0.15929 -2.09731,-0.62388 -3.40481,-2.01103 -3.9225,-4.16144 -0.14602,-0.63716 -0.21902,-1.26768 -0.21902,-1.89156 0,-0.61061 0.0664,-1.22122 0.19911,-1.83183 0.37168,-2.00439 1.22122,-3.76321 2.54863,-5.27646 0.79645,-0.92919 1.56635,-1.48006 2.3097,-1.65263 0.3053,-0.0664 0.5907,-0.0996 0.85618,-0.0996 0.38495,0 0.73671,0.073 1.05529,0.21902 0.38495,0.25221 0.57742,0.56415 0.57742,0.93583 0,0.3584 -0.13274,0.65707 -0.39822,0.896 -0.18584,0.14602 -0.39159,0.21902 -0.61725,0.21902 -0.80972,0 -1.44024,0.27212 -1.89156,0.81636 -1.1814,1.23449 -1.91811,2.69465 -2.21014,4.38046 -0.10619,0.46459 -0.15929,0.92919 -0.15929,1.39378 0,0.91591 0.19911,1.719 0.59734,2.40925 0.50442,0.80972 1.01215,1.271 1.52321,1.38383 0.51105,0.11283 0.86614,0.16925 1.06525,0.16925 0.61061,0 1.22122,-0.19247 1.83183,-0.57742 0.70353,-0.50442 1.19799,-1.14821 1.48338,-1.93138 0.28539,-0.78317 0.42809,-1.43361 0.42809,-1.9513 0,-0.50442 -0.0996,-1.00883 -0.29867,-1.51325 -0.29203,-0.86282 -0.88273,-1.36723 -1.7721,-1.51325 -0.13274,-0.0266 -0.27212,-0.073 -0.41813,-0.13938 -0.47787,-0.23893 -0.74003,-0.47455 -0.78649,-0.70685 -0.0465,-0.2323 -0.0697,-0.38163 -0.0697,-0.448 0,-0.33185 0.15265,-0.65707 0.45796,-0.97565 0.22566,-0.21239 0.48451,-0.37831 0.77654,-0.49778 1.15485,-0.49114 2.31633,-0.73671 3.48446,-0.73671 0.84954,0 1.69909,0.1261 2.54863,0.37831 0.22566,0.0796 0.42477,0.20575 0.59734,0.37831 0.21239,0.22566 0.31858,0.46459 0.31858,0.7168 0,0.15929 -0.0398,0.31858 -0.11947,0.47787 -0.17256,0.4115 -0.47787,0.61725 -0.91591,0.61725 -0.38495,-0.0266 -0.76326,-0.073 -1.13494,-0.13938 -0.95574,-0.15929 -1.63935,-0.23893 -2.05085,-0.23893 l 0.25885,0.39822 c 0.94246,1.19467 1.41369,2.4889 1.41369,3.88268 0,0.53096 -0.073,1.08184 -0.21902,1.65263 -0.26548,1.22122 -0.82963,2.29642 -1.69245,3.22561 -1.14157,1.26104 -2.48226,1.89156 -4.02206,1.89156 z"
           data-paper-data="{&quot;glyphName&quot;:&quot;o&quot;,&quot;glyphIndex&quot;:9,&quot;word&quot;:1}"
           fill="#a97038"
           id="path10" />
        <path
           d="m 352.41204,297.72779 c -0.74335,0 -1.15485,-0.48451 -1.23449,-1.45352 -0.0664,-0.84954 -0.0996,-1.98448 -0.0996,-3.40481 0,-2.03094 0.15265,-3.9756 0.45796,-5.83398 0.0265,-0.18584 0.0796,-0.3584 0.15929,-0.51769 0.19911,-0.49114 0.54424,-0.73671 1.03538,-0.73671 0.70353,0.0664 1.06193,0.45132 1.0752,1.15485 -0.0265,0.4115 -0.073,0.823 -0.13938,1.23449 -0.21239,1.61944 -0.32522,3.23889 -0.33849,4.85833 0,1.68581 0.0597,2.72783 0.1792,3.12606 0.0398,0.0664 0.0597,0.19911 0.0597,0.39822 0,0.53096 -0.26548,0.90264 -0.79645,1.11503 -0.11947,0.0398 -0.23893,0.0597 -0.3584,0.0597 z m -0.0797,3.88268 c -0.34513,0 -0.6272,-0.11283 -0.84623,-0.33849 -0.21902,-0.22566 -0.32853,-0.51769 -0.32853,-0.87609 0,-0.37168 0.11615,-0.68694 0.34845,-0.94578 0.2323,-0.25885 0.52101,-0.38827 0.86614,-0.38827 0.31858,0.0265 0.58406,0.15929 0.79645,0.39822 0.21239,0.23893 0.32522,0.54424 0.33849,0.91591 -0.0398,0.7699 -0.43141,1.1814 -1.17476,1.23449 z"
           data-paper-data="{&quot;glyphName&quot;:&quot;!&quot;,&quot;glyphIndex&quot;:10,&quot;lastGlyphOfWord&quot;:true,&quot;word&quot;:1}"
           fill="#a97038"
           id="path11" />
      </g>
      <g
         data-paper-data="{&quot;isPrimaryText&quot;:true}"
         id="g22">
        <path
           d="m 69.12072,245.38012 c 5.84482,0.26567 17.53447,-1.32837 16.826,-4.87069 -1.15125,-5.57915 -2.92241,-1.50548 -11.7782,-0.97414 -0.70846,-8.59012 0.44279,-41.44511 -0.26567,-52.86908 0.08856,-2.21395 -0.35423,-2.92241 -3.3652,-3.09953 -3.98511,-0.0886 -4.95924,0.61991 -5.0478,2.7453 -0.61991,16.29466 -0.61991,22.3166 -0.17712,56.05716 0,1.77116 1.85972,2.92241 3.80799,3.01097 z"
           data-paper-data="{&quot;glyphName&quot;:&quot;L&quot;,&quot;glyphIndex&quot;:0,&quot;firstGlyphOfWord&quot;:true,&quot;word&quot;:1}"
           fill-rule="nonzero"
           fill="#378280"
           id="path12" />
        <path
           d="m 95.51098,247.9483 c 0.88558,0 2.7453,0 3.63087,-0.61991 3.63087,-1.50548 8.14733,-3.63087 11.7782,-5.75626 1.85972,-0.70846 2.03683,-0.97414 0.79702,-3.09953 -1.94827,-3.18809 -8.14733,2.47962 -11.68965,3.80799 -2.21395,0.53135 -1.23981,-12.75234 -1.77116,-19.21707 3.63087,0 6.1105,-0.17712 9.03291,-0.70846 1.50548,-0.35423 3.71943,-0.35423 3.63087,-1.41693 -0.26567,-3.45376 -2.7453,-2.39106 -4.51645,-2.03683 -2.92241,0.61991 -5.49059,0.70846 -8.14733,0.70846 0,-2.39106 -2.39106,-20.72255 0,-21.16534 6.37617,0 11.7782,-0.97414 11.7782,-2.39106 0,-3.54232 -1.50548,-1.85972 -12.75234,-0.70846 -9.4757,0.97414 -8.14733,10.36128 -8.14733,26.3017 0,13.81504 -1.50548,26.3017 6.37617,26.3017 z"
           data-paper-data="{&quot;glyphName&quot;:&quot;E&quot;,&quot;glyphIndex&quot;:1,&quot;word&quot;:1}"
           fill-rule="nonzero"
           fill="#378280"
           id="path13" />
        <path
           d="m 131.4655,242.98906 c 12.8409,0.17712 15.76331,-7.61598 16.91456,-22.05092 0.70846,-9.65281 -2.12539,-21.69669 -13.81504,-22.49371 -17.71158,-1.23981 -20.27976,10.36128 -19.12851,24.35343 0.70846,8.67868 6.02194,19.92553 16.02898,20.19121 z m 0.53135,-6.1105 c -10.53839,-3.54232 -8.94435,-32.23508 1.32837,-32.14652 10.00704,0.26567 10.98118,31.96941 -1.32837,32.14652 z"
           data-paper-data="{&quot;glyphName&quot;:&quot;O&quot;,&quot;glyphIndex&quot;:2,&quot;word&quot;:1}"
           fill-rule="nonzero"
           fill="#378280"
           id="path14" />
        <path
           d="m 159.71548,248.21398 c 3.27664,-0.0886 3.89655,-0.61991 3.89655,-3.18809 -0.17712,-21.43102 -1.0627,-25.15045 -0.35423,-30.37537 3.27664,8.05877 10.27272,19.83697 16.56033,27.45296 1.94827,2.30251 4.51645,3.01097 8.23589,2.56818 2.12539,-0.26567 3.27664,-1.0627 3.45376,-2.56818 0.79702,-11.06974 0.79702,-27.3644 0.79702,-46.05012 0,-1.23981 -3.18809,-1.59404 -4.87069,-1.59404 -3.80799,-0.0886 -3.71943,1.6826 -3.80799,2.47962 -0.88558,9.56426 -0.97414,30.64104 -0.97414,35.51173 -6.28761,-10.27272 -8.67868,-14.70061 -17.18024,-29.047 -1.23981,-2.12539 -5.22492,-3.3652 -8.413,-2.92241 -1.50548,0.35423 -3.63087,0.97414 -3.71943,2.12539 -0.88558,20.98823 -0.0886,24.6191 1.50548,42.68492 0.17712,2.30251 1.41693,3.01097 4.87069,2.92241 z"
           data-paper-data="{&quot;glyphName&quot;:&quot;N&quot;,&quot;glyphIndex&quot;:3,&quot;word&quot;:1}"
           fill-rule="nonzero"
           fill="#378280"
           id="path15" />
        <path
           d="m 223.12295,247.68263 c 1.59404,-0.53135 2.47962,-1.23981 2.47962,-2.56818 -1.6826,-9.74137 -3.09953,-20.01409 -3.80799,-24.88478 3.09953,0 4.60501,-0.0886 4.60501,-1.85972 0,-1.6826 -1.77116,-1.6826 -4.87069,-1.50548 -0.17712,-1.85972 -3.71943,-20.36832 -4.07366,-21.60813 -0.70846,-2.56818 -2.47962,-3.3652 -4.95924,-3.3652 -3.18809,0 -4.07366,0.61991 -4.87069,2.65674 -2.03683,3.27664 -4.87069,16.38322 -5.66771,22.3166 -4.07366,0.0886 -5.84482,-0.53135 -5.84482,1.6826 0,2.03683 2.12539,1.50548 5.0478,1.6826 -0.70846,5.49059 -0.88558,11.7782 -0.88558,20.98823 0,1.94827 1.6826,2.65674 4.07366,2.65674 2.47962,0 3.27664,-0.70846 3.27664,-2.65674 0.0886,-8.67868 0.17712,-11.42397 0.79702,-20.98823 h 4.69357 c 0,4.16222 2.03683,18.42005 3.45376,23.64496 0.88558,3.27664 2.47962,4.51645 6.55329,3.80799 z M 208.688,216.77592 c 1.41693,-7.7931 2.39106,-11.68965 3.01097,-11.68965 0.88558,0 0.88558,4.25078 1.41693,11.7782 -1.59404,0 -3.63087,-0.0886 -4.4279,-0.0886 z"
           data-paper-data="{&quot;glyphName&quot;:&quot;A&quot;,&quot;glyphIndex&quot;:4,&quot;lastGlyphOfWord&quot;:true,&quot;word&quot;:1}"
           fill-rule="nonzero"
           fill="#378280"
           id="path16" />
        <path
           d="m 355.0738,243.16618 c 0.53135,3.27664 0.61991,4.25078 5.22492,4.25078 4.16222,0 4.33934,-1.94827 4.33934,-4.25078 -0.70846,-4.51645 -1.50548,-17.35735 -1.77116,-19.92553 12.92946,-2.56818 20.54544,-9.12147 18.06582,-21.43102 -1.59404,-7.88165 -9.74137,-8.59012 -20.01409,-9.29858 0,-3.09953 -1.41693,-2.92241 -4.78213,-3.09953 -3.01097,-0.17712 -3.54232,2.30251 -3.54232,3.80799 -2.03683,0.17712 -4.4279,-0.53135 -4.4279,2.12539 0,1.15125 1.32837,0.70846 4.51645,0.61991 0,22.05092 0,32.4122 2.39106,47.20137 z m 7.7931,-24.88478 c -0.88558,-8.14733 -0.88558,-14.70061 -1.6826,-22.05092 6.02194,0 11.1583,3.18809 12.04388,8.85579 0.79702,5.13636 -3.45376,10.27272 -10.36128,13.19513 z"
           data-paper-data="{&quot;glyphName&quot;:&quot;P&quot;,&quot;glyphIndex&quot;:5,&quot;firstGlyphOfWord&quot;:true,&quot;word&quot;:2}"
           fill-rule="nonzero"
           fill="#5f9e9c"
           id="path17" />
        <path
           d="m 409.71404,247.68263 c 1.59404,-0.53135 2.47962,-1.23981 2.47962,-2.56818 -1.6826,-9.74137 -3.09953,-20.01409 -3.80799,-24.88478 3.09953,0 4.60501,-0.0886 4.60501,-1.85972 0,-1.6826 -1.77116,-1.6826 -4.87069,-1.50548 -0.17712,-1.85972 -3.71943,-20.36832 -4.07366,-21.60813 -0.70846,-2.56818 -2.47962,-3.3652 -4.95924,-3.3652 -3.18809,0 -4.07366,0.61991 -4.87069,2.65674 -2.03683,3.27664 -4.87069,16.38322 -5.66771,22.3166 -4.07366,0.0886 -5.84482,-0.53135 -5.84482,1.6826 0,2.03683 2.12539,1.50548 5.0478,1.6826 -0.70846,5.49059 -0.88558,11.7782 -0.88558,20.98823 0,1.94827 1.6826,2.65674 4.07366,2.65674 2.47962,0 3.27664,-0.70846 3.27664,-2.65674 0.0886,-8.67868 0.17712,-11.42397 0.79702,-20.98823 h 4.69357 c 0,4.16222 2.03683,18.42005 3.45376,23.64496 0.88558,3.27664 2.47962,4.51645 6.55329,3.80799 z m -14.43495,-30.90671 c 1.41693,-7.7931 2.39106,-11.68965 3.01097,-11.68965 0.88558,0 0.88558,4.25078 1.41693,11.7782 -1.59404,0 -3.63087,-0.0886 -4.4279,-0.0886 z"
           data-paper-data="{&quot;glyphName&quot;:&quot;A&quot;,&quot;glyphIndex&quot;:6,&quot;word&quot;:2}"
           fill-rule="nonzero"
           fill="#5f9e9c"
           id="path18" />
        <path
           d="m 418.65839,242.54627 c 0.17712,2.56818 0.70846,3.54232 5.13636,3.18809 3.98511,-0.26567 3.80799,-1.15125 3.71943,-2.47962 -0.17712,-2.47962 -0.70846,-11.06974 -0.70846,-12.04388 1.6826,1.23981 7.88165,5.66771 14.08071,10.00704 2.03683,1.41693 5.93338,5.66771 9.4757,3.71943 4.16222,-2.56818 1.23981,-4.07366 -0.70846,-5.31348 -5.57915,-3.3652 -10.44983,-7.17319 -16.11754,-10.89262 8.32444,-4.07366 13.99215,-7.88165 12.13243,-16.73745 -2.03683,-8.67868 -9.65281,-12.75234 -19.74842,-14.16927 0.17712,-1.85972 0.35423,-3.18809 -4.25078,-3.3652 -1.94827,0 -2.92241,0.44279 -3.09953,3.09953 -4.4279,-0.0886 -6.19905,0.0886 -6.02194,2.21395 0.17712,1.59404 3.89655,1.0627 5.31348,1.15125 -1.23981,12.66378 -0.26567,30.37537 0.79702,41.62222 z m 7.61598,-15.85187 c -0.26567,-8.76723 -0.44279,-17.18024 -0.53135,-25.59324 5.22492,0.17712 10.71551,5.40203 11.86676,10.80407 1.15125,5.75626 -3.80799,12.30955 -11.33541,14.78917 z"
           data-paper-data="{&quot;glyphName&quot;:&quot;R&quot;,&quot;glyphIndex&quot;:7,&quot;word&quot;:2}"
           fill-rule="nonzero"
           fill="#5f9e9c"
           id="path19" />
        <path
           d="m 459.57214,244.76022 c 1.23981,-0.44279 1.77116,-1.0627 1.77116,-2.56818 0,-2.92241 -0.17712,-11.60109 -0.17712,-19.12851 2.30251,3.3652 9.56426,11.33541 13.99215,16.47177 1.85972,2.12539 5.57915,5.75626 8.14733,3.71943 2.7453,-2.21395 1.59404,-4.87069 0.44279,-5.93338 -8.94435,-8.32444 -10.53839,-11.24686 -19.5713,-21.69669 7.61598,-9.12147 8.50156,-10.44983 13.28369,-18.50861 0.53135,-0.88558 0.53135,-3.01097 -1.0627,-4.4279 -1.85972,-1.6826 -3.71943,-1.0627 -5.31348,1.94827 -1.77116,3.3652 -7.97021,12.04388 -10.18416,14.70061 v -17.26879 c 0,-2.83385 -1.23981,-3.27664 -4.4279,-3.18809 -2.47962,0.0886 -3.27664,0.61991 -3.45376,3.3652 -1.15125,18.50861 -0.17712,29.48979 -0.17712,48.44118 0,3.89655 3.27664,5.13636 6.7304,4.07366 z"
           data-paper-data="{&quot;glyphName&quot;:&quot;K&quot;,&quot;glyphIndex&quot;:8,&quot;lastGlyphOfWord&quot;:true,&quot;word&quot;:2}"
           fill-rule="nonzero"
           fill="#5f9e9c"
           id="path20" />
        <g
           data-paper-data="{&quot;fillRule&quot;:&quot;evenodd&quot;,&quot;fillRuleOriginal&quot;:&quot;evenodd&quot;,&quot;isIcon&quot;:true,&quot;iconStyle&quot;:&quot;icon-in-text&quot;,&quot;selectedEffects&quot;:{&quot;container&quot;:&quot;&quot;,&quot;transformation&quot;:&quot;rotate0;translate50&quot;,&quot;pattern&quot;:&quot;&quot;},&quot;bounds&quot;:{&quot;x&quot;:235.4767752858259,&quot;y&quot;:167.3939668633203,&quot;width&quot;:103.61231941676749,&quot;height&quot;:93.00035493562021},&quot;iconType&quot;:&quot;icon&quot;,&quot;rawIconId&quot;:&quot;3964780&quot;,&quot;isDetailed&quot;:false,&quot;suitableAsStandaloneIcon&quot;:true}"
           fill-rule="evenodd"
           id="g21">
          <path
             d="m 319.17327,168.60153 19.04018,22.03138 c 0.66439,0.75686 0.97329,1.76179 0.84847,2.76111 l -3.98348,29.49502 c -0.10613,0.78174 -0.47068,1.50567 -1.03542,2.05646 l -17.17067,16.52354 c -0.14596,0.15358 -0.31019,0.28891 -0.48895,0.40266 l -27.16533,17.93286 c -0.57264,0.38828 -1.24955,0.59378 -1.94141,0.58961 -0.68784,0.007 -1.36085,-0.19917 -1.92703,-0.58961 L 258.1843,241.81418 c -0.18336,-0.11361 -0.35233,-0.24879 -0.50333,-0.40266 L 240.52468,224.9455 c -0.56919,-0.54949 -0.93863,-1.27313 -1.0498,-2.05646 l -3.9691,-29.49502 c -0.12871,-0.99716 0.17487,-2.00195 0.83408,-2.76111 l 19.05456,-22.03138 c 1.03987,-1.20123 2.75924,-1.54982 4.18481,-0.84847 l 27.69742,13.43167 27.7118,-13.43167 c 1.42629,-0.69618 3.14235,-0.34816 4.18481,0.84847 z m -62.34076,22.37652 22.41966,-5.92489 -19.7736,-9.56323 z m 61.01772,0 -2.64607,-15.48812 -19.81674,9.56323 z m -72.57988,0.20133 7.29106,0.46018 1.88388,-11.07321 z m 84.2571,0 -9.18933,-10.61303 1.89827,11.07321 z m -44.23534,25.82791 v -29.04921 l -0.28762,-0.0863 -26.33124,6.97469 z m 4.40053,-29.1355 -0.18695,0.0863 -0.11505,29.04921 26.61886,-22.16081 z m -38.38236,7.90945 -8.35525,-0.53209 2.07084,16.2503 z m 72.06219,0.0719 6.21251,15.64631 2.14274,-16.1784 z m -61.59297,39.47529 21.9451,-14.03566 -26.7339,-22.36214 z m 55.78312,-36.3978 -26.74829,22.36214 21.97386,14.03566 z m 3.86844,3.29321 -3.78215,28.7616 10.68493,-10.28227 0.0863,-0.63276 z m -68.20813,0.0288 -6.98907,17.84657 0.0431,0.63276 10.71369,10.28227 z m 31.93975,48.99538 v -25.88544 l -19.88864,12.72701 z m 24.1166,-13.15843 -19.90302,-12.72701 0.0144,25.9142 z"
             data-paper-data="{&quot;isPathIcon&quot;:true}"
             fill="#a97038"
             id="path21" />
        </g>
      </g>
    </g>
  </g>
</svg>
